<mxfile host="app.diagrams.net" modified="2024-06-23T14:31:02.173Z" agent="Mozilla/5.0 (Windows NT 10.0; Win64; x64; rv:127.0) Gecko/20100101 Firefox/127.0" version="24.4.3" etag="UtnAztEqL9KyfUrw2lDi" type="github">
  <diagram name="หน้า-1" id="lc0lnvrULM7RFjk2gOxu">
    <mxGraphModel>
      <root>
        <mxCell id="0" />
        <mxCell id="1" parent="0" />
      </root>
    </mxGraphModel>
  </diagram>
</mxfile>
